Coordinates
version=1
nRows=17
nColumns=40
inDegrees=yes

Units are S.I. units (second, meters, Newtons, ...)
Angles are in degrees.

endheader
time	pelvis_tilt	pelvis_list	pelvis_rotation	pelvis_tx	pelvis_ty	pelvis_tz	hip_flexion_r	hip_adduction_r	hip_rotation_r	knee_angle_r	knee_angle_r_beta	ankle_angle_r	subtalar_angle_r	mtp_angle_r	hip_flexion_l	hip_adduction_l	hip_rotation_l	knee_angle_l	knee_angle_l_beta	ankle_angle_l	subtalar_angle_l	mtp_angle_l	lumbar_extension	lumbar_bending	lumbar_rotation	arm_flex_r	arm_add_r	arm_rot_r	elbow_flex_r	pro_sup_r	wrist_flex_r	wrist_dev_r	arm_flex_l	arm_add_l	arm_rot_l	elbow_flex_l	pro_sup_l	wrist_flex_l	wrist_dev_l
     30.39692857	     -3.82150659	     -3.57870983	     -7.48163440	      1.06267273	      0.92346352	      0.44234914	     25.64781605	     -3.11674513	     -4.74836185	     20.39117751	     20.39117751	      2.31982424	      3.10571708	      1.72021680	     10.08007718	     -3.06161098	     -9.47664081	     24.31426769	     24.31426769	     19.31857564	    -15.29490547	      1.94360364	    -11.26319247	      6.97335640	      0.41004257	    -21.45717970	    -12.87622072	    -18.35040161	     31.92085602	     47.07552304	      0.00000000	      0.00000000	     35.45377954	    -22.09834765	      0.96211621	     82.04639572	     47.65570602	      0.00000000	      0.00000000
     30.41885714	     -4.08078824	     -3.52583124	     -7.73567100	      1.06266911	      0.92238206	      0.44679857	     25.26316194	     -2.90238559	     -4.81385363	     19.54767774	     19.54767774	      2.10743835	      4.16301635	      1.32191953	     10.08470613	     -3.32155683	     -9.55541574	     24.51595222	     24.51595222	     19.55658244	    -15.49404909	      1.83446631	    -11.23946196	      6.95976523	      0.87399545	    -21.49142537	    -12.68859673	    -18.12131679	     32.02945748	     47.04019955	      0.00000000	      0.00000000	     36.60655477	    -21.81081267	      0.44207814	     83.99775797	     47.74041681	      0.00000000	      0.00000000
     30.44078571	     -4.33854322	     -3.36727831	     -7.98401903	      1.06290891	      0.92128501	      0.45152295	     24.90105000	     -2.74569216	     -4.76750704	     18.88627844	     18.88627844	      1.40958435	      4.73090959	     -1.50726328	     10.03218486	     -3.47669424	     -9.66226406	     24.62060783	     24.62060783	     19.84060057	    -15.60354163	      1.91231147	    -11.21423901	      6.82071736	      0.45319466	    -20.85823832	    -12.89219808	    -16.76575950	     32.64671275	     46.83945805	      0.00000000	      0.00000000	     36.53653540	    -22.14628449	     -1.37887571	     87.38193734	     47.96691143	      0.00000000	      0.00000000
     30.46271429	     -4.60100573	     -3.28315817	     -8.23281848	      1.06330809	      0.92044822	      0.45655673	     24.65956391	     -2.49946808	     -4.77532924	     18.67418402	     18.67418402	      1.74014736	      5.33346675	     -1.99461323	      9.90067412	     -3.71723769	     -9.75101642	     24.61230393	     24.61230393	     20.01272887	    -15.74483703	      1.94030273	    -11.18290734	      6.78065205	      0.97544500	    -20.39532754	    -12.78017792	    -16.56291501	     32.91992714	     46.80541350	      0.00000000	      0.00000000	     37.29464475	    -21.84034850	     -1.64484120	     89.14672835	     48.02845357	      0.00000000	      0.00000000
     30.48464286	     -4.93802316	     -3.22761507	     -8.46190931	      1.06379435	      0.91974275	      0.46193122	     24.57177978	     -2.14464549	     -4.60011473	     18.67259837	     18.67259837	      2.24438139	      5.50503549	     -2.28841249	      9.76445848	     -4.00850919	     -9.82842840	     24.45673013	     24.45673013	     20.15194148	    -15.85373412	      1.96987291	    -10.96289556	      6.74850579	      1.19184430	    -19.60674316	    -12.75466981	    -16.49964502	     33.26174958	     46.79095901	      0.00000000	      0.00000000	     37.92515618	    -21.75471832	     -1.76320449	     89.73941404	     48.05215882	      0.00000000	      0.00000000
     30.50657143	     -5.26540745	     -3.19241112	     -8.60933718	      1.06451154	      0.91927938	      0.46744502	     24.46859598	     -1.76915028	     -4.47343042	     18.73750643	     18.73750643	      2.89054392	      5.58001123	     -2.62023354	      9.55750608	     -4.31803724	     -9.86038025	     24.21206829	     24.21206829	     20.24937171	    -15.88595157	      2.02604962	    -10.76215743	      6.78036237	      1.45722874	    -18.80355853	    -12.75959091	    -16.44613941	     33.61704694	     46.77756580	      0.00000000	      0.00000000	     38.33636994	    -21.56788254	     -1.81770590	     90.30108744	     48.06957690	      0.00000000	      0.00000000
     30.52850000	     -5.30989837	     -3.05298615	     -8.78942434	      1.06546974	      0.91954449	      0.47318608	     24.20743384	     -1.48750186	     -4.17136497	     19.01213591	     19.01213591	      3.28897735	      5.22831339	     -3.56136658	      8.75782186	     -4.46038542	    -10.13487674	     23.42762247	     23.42762247	     20.22212718	    -15.62675387	      2.28948635	    -11.05884249	      6.51162798	      1.60605644	    -17.97229912	    -12.83788820	    -16.17857921	     34.91024101	     46.69761082	      0.00000000	      0.00000000	     37.76785102	    -21.34287698	     -2.75075647	     93.94238439	     48.20274177	      0.00000000	      0.00000000
     30.55042857	     -5.66129041	     -3.11553642	     -8.75848678	      1.06636540	      0.91946859	      0.47887524	     24.15561342	     -1.03198655	     -4.22200452	     19.15466836	     19.15466836	      3.91785126	      5.12390711	     -3.86410995	      8.52370863	     -4.89209616	    -10.10164949	     23.07685357	     23.07685357	     20.21856653	    -15.54216041	      2.38264264	    -10.79333432	      6.60135816	      1.65373142	    -16.94635270	    -12.97263291	    -16.13128323	     35.40869246	     46.68093642	      0.00000000	      0.00000000	     37.83990582	    -21.08977173	     -2.67926418	     94.12975967	     48.20304062	      0.00000000	      0.00000000
     30.57235714	     -5.87656464	     -3.18519898	     -8.64718778	      1.06737114	      0.91982567	      0.48463099	     24.06672091	     -0.60061163	     -4.31440293	     19.46577663	     19.46577663	      4.37056050	      4.78226065	     -4.12089915	      8.00354909	     -5.30668957	    -10.13087034	     22.44548903	     22.44548903	     20.10438919	    -15.21273299	      2.55166410	    -10.65731056	      6.57345074	      1.55002328	    -15.74430954	    -13.18710705	    -16.06904668	     36.17359586	     46.65307879	      0.00000000	      0.00000000	     37.63874682	    -20.74211546	     -2.56492348	     94.39435412	     48.20108520	      0.00000000	      0.00000000
     30.59428571	     -5.92634857	     -3.17587320	     -8.50740698	      1.06865000	      0.92055333	      0.49038131	     23.75184248	     -0.16932692	     -3.87850427	     19.65075483	     19.65075483	      4.77307990	      3.65351565	     -4.61191052	      7.13576999	     -5.64323348	    -10.47552606	     21.50196883	     21.50196883	     19.94046714	    -14.30486111	      2.48967918	    -10.80546584	      6.53211566	      0.29866814	    -15.16434348	    -13.85472608	    -14.31500425	     40.45751175	     46.35182155	      0.00000000	      0.00000000	     35.72309656	    -21.56232283	     -3.96353372	     96.77854987	     48.34119632	      0.00000000	      0.00000000
     30.61621429	     -6.03348224	     -3.25438511	     -8.22516396	      1.06992524	      0.92123790	      0.49592893	     23.44687448	      0.22191125	     -3.98652441	     19.77729965	     19.77729965	      5.24715821	      3.22717014	     -4.68365645	      6.51119745	     -6.08558223	    -10.60902150	     20.86257685	     20.86257685	     19.79301440	    -13.57106882	      2.61480618	    -10.71442856	      6.53634276	      0.11105921	    -14.78234365	    -14.71010206	    -11.69642088	     43.13734874	     46.07580590	      0.00000000	      0.00000000	     35.26231308	    -21.23235328	     -3.47552361	     96.16800706	     48.31969657	      0.00000000	      0.00000000
     30.63814286	     -6.12726837	     -3.34237424	     -7.86484219	      1.07127306	      0.92202197	      0.50136734	     23.06285807	      0.58702085	     -4.20775022	     19.77904439	     19.77904439	      5.65394280	      2.91655776	     -4.72937307	      5.94621094	     -6.54006500	    -10.64807383	     20.32044153	     20.32044153	     19.58790284	    -12.92219958	      2.77859389	    -10.56100258	      6.53429231	     -0.29999191	    -13.60505449	    -15.03744775	    -11.62664731	     44.19757562	     46.03552221	      0.00000000	      0.00000000	     34.41087915	    -20.96662533	     -2.97851719	     95.39905602	     48.27225504	      0.00000000	      0.00000000
     30.66007143	     -6.20672731	     -3.47295179	     -7.39159768	      1.07256269	      0.92285308	      0.50662263	     22.58990973	      0.96804013	     -4.48047366	     19.63934333	     19.63934333	      6.03453340	      2.60349844	     -4.69940906	      5.60715950	     -7.11880029	    -10.73015490	     20.19056525	     20.19056525	     19.37906100	    -12.04951649	      2.85108380	    -10.43468396	      6.61712406	     -0.71492023	    -12.64159915	    -15.45650067	    -11.34289515	     45.98468424	     45.95506383	      0.00000000	      0.00000000	     33.43736788	    -20.73849359	     -2.28314065	     94.24713250	     48.20612140	      0.00000000	      0.00000000
     30.68200000	     -6.27339238	     -3.62282346	     -6.90156473	      1.07383252	      0.92360667	      0.51180355	     22.12045069	      1.35170718	     -4.83614368	     19.53432405	     19.53432405	      6.38571639	      2.31913167	     -4.65766930	      5.49414249	     -7.81716668	    -10.94278335	     20.51671711	     20.51671711	     19.34007931	    -10.94023279	      2.86167262	    -10.31340083	      6.70655314	     -0.50821070	    -12.79681383	    -16.30831632	    -10.02819262	     49.61474732	     45.74706700	      0.00000000	      0.00000000	     32.67504871	    -19.93886793	     -0.89288610	     92.50813323	     48.09851898	      0.00000000	      0.00000000
     30.70392857	     -6.32186329	     -3.78259021	     -6.33228458	      1.07514245	      0.92448479	      0.51682132	     21.45928947	      1.71849034	     -5.30738285	     19.10730520	     19.10730520	      6.68936180	      2.28889828	     -4.65659086	      5.58336233	     -8.48886785	    -10.68166122	     21.15115278	     21.15115278	     18.99838964	    -10.61388686	      2.74774339	    -10.11690455	      6.77373568	     -0.98421643	    -11.53546794	    -16.71722022	     -9.95054505	     50.85284950	     45.70431389	      0.00000000	      0.00000000	     31.22304915	    -19.54914360	     -0.07603447	     90.88785147	     48.01215019	      0.00000000	      0.00000000
     30.72585714	     -6.34144050	     -3.89560461	     -5.72713194	      1.07629125	      0.92536600	      0.52167219	     20.80846616	      2.01799147	     -5.82143832	     18.71191083	     18.71191083	      6.91388883	      2.25432740	     -4.66066496	      5.97899378	     -9.19667504	    -10.41112744	     22.35039555	     22.35039555	     18.54893227	    -10.18840211	      2.32726688	     -9.99139814	      6.79727091	     -1.23476843	    -10.38341899	    -17.20670008	     -9.66571611	     52.30084618	     45.64502281	      0.00000000	      0.00000000	     29.64232552	    -18.99460276	      0.89905616	     88.92693539	     47.90891487	      0.00000000	      0.00000000
     30.74778571	     -6.26617298	     -4.00452516	     -5.14817142	      1.07741868	      0.92626771	      0.52653567	     20.08065119	      2.32977920	     -6.26797101	     18.35537815	     18.35537815	      7.14804675	      2.18255796	     -4.79618722	      6.52555133	    -10.01508303	    -10.31985992	     23.98592347	     23.98592347	     17.73499585	     -9.65790161	      0.76652459	     -9.92038186	      6.79821475	     -0.85884705	    -10.13194147	    -18.22839419	     -8.18881192	     55.12334408	     45.48314417	      0.00000000	      0.00000000	     28.62981782	    -17.98092250	      2.66919407	     85.38844901	     47.74178520	      0.00000000	      0.00000000
